<?xml version="1.0" encoding="UTF-8"?>
<svg id="Layer_1" data-name="Layer 1" xmlns="http://www.w3.org/2000/svg" viewBox="0 0 187.89 121.72">
  <defs>
    <style>
      .cls-1 {
        fill: none;
        stroke: #c4a23a;
        stroke-miterlimit: 10;
        stroke-width: 3px;
      }

      .cls-2 {
        fill: #c4a23a;
      }
    </style>
  </defs>
  <path class="cls-1" d="M123.12,46.07l8.79-19.53s-12.89,10.94-16.8-8.2c0,0-13.89,15.23-21.79-6.84,0,0-7.51,21.87-21.57,7.23,0,0-3.12,17.58-16.21,8.59l8.01,18.75h25.03s5.14-4.75,5.14-4.75c0,0,4.61,4.75,4.61,4.75,.03,0,24.59,0,24.78,0Z"/>
  <polygon class="cls-2" points="116.09 17.95 110.23 37.28 113.94 17.95 116.09 17.95"/>
  <polygon class="cls-2" points="93.73 37.28 94.41 14.23 93.33 9.36 91.74 15.07 93.73 37.28"/>
  <polygon class="cls-2" points="76.25 37.28 73.68 20.55 71.76 18.73 71 21.54 76.25 37.28"/>
  <path class="cls-2" d="M93.73,0c-1.55,0-2.81,1.26-2.81,2.81s1.26,2.81,2.81,2.81,2.81-1.26,2.81-2.81-1.26-2.81-2.81-2.81Zm.81,3.18c-.65,0-1.18-.53-1.18-1.18s.53-1.18,1.18-1.18,1.18,.53,1.18,1.18-.53,1.18-1.18,1.18Z"/>
  <path class="cls-2" d="M69.97,8.64c-1.55,0-2.81,1.26-2.81,2.81s1.26,2.81,2.81,2.81,2.81-1.26,2.81-2.81-1.26-2.81-2.81-2.81Zm.81,3.18c-.65,0-1.18-.53-1.18-1.18s.53-1.18,1.18-1.18,1.18,.53,1.18,1.18-.53,1.18-1.18,1.18Z"/>
  <path class="cls-2" d="M117.55,8.38c-1.55,0-2.81,1.26-2.81,2.81s1.26,2.81,2.81,2.81,2.81-1.26,2.81-2.81-1.26-2.81-2.81-2.81Zm.81,3.18c-.65,0-1.18-.53-1.18-1.18s.53-1.18,1.18-1.18,1.18,.53,1.18,1.18-.53,1.18-1.18,1.18Z"/>
  <path class="cls-2" d="M137.32,14.74c-1.55,0-2.81,1.26-2.81,2.81s1.26,2.81,2.81,2.81,2.81-1.26,2.81-2.81-1.26-2.81-2.81-2.81Zm1.12,3.55c-.65,0-1.18-.53-1.18-1.18s.53-1.18,1.18-1.18,1.18,.53,1.18,1.18-.53,1.18-1.18,1.18Z"/>
  <path class="cls-2" d="M50.58,16.26c-1.55,0-2.81,1.26-2.81,2.81s1.26,2.81,2.81,2.81,2.81-1.26,2.81-2.81-1.26-2.81-2.81-2.81Zm.81,3.18c-.65,0-1.18-.53-1.18-1.18s.53-1.18,1.18-1.18,1.18,.53,1.18,1.18-.53,1.18-1.18,1.18Z"/>
  <path class="cls-2" d="M96.34,50.38s-2.89-3.46-2.89-3.46c0,0-3.4,3.46-3.41,3.46h-26.76l1.99,5.81h55.96l2.05-5.81h-26.94Zm-3.06,2.15c-.65,0-1.18-.53-1.18-1.18s.53-1.18,1.18-1.18,1.18,.53,1.18,1.18-.53,1.18-1.18,1.18Z"/>
  <g id="SvgjsG1008">
    <path class="cls-2" d="M23.25,103.05H8.39c-5.03,0-8.39-3.36-8.39-7.91v-17.73c0-4.55,3.36-7.91,8.39-7.91h13.9v2.16l-.96,.96H8.39c-2.64,0-4.79,2.16-4.79,4.79v17.73c0,2.64,2.16,4.79,4.79,4.79h11.26v-15.1h3.59v18.21Zm25.88,0h-11.5c-4.55,0-7.19-2.88-7.19-6.71v-11.5c0-3.83,2.88-6.71,7.19-6.71h5.27c4.31,0,7.19,2.88,7.19,6.71v7.43h-16.3v4.07c0,2.16,1.68,3.83,3.83,3.83h11.5s0,2.88,0,2.88Zm-15.34-18.21v4.55h12.94v-4.55c0-2.16-1.68-3.83-3.83-3.83h-5.27c-2.16,0-3.83,1.68-3.83,3.83Zm26.84,.48v17.73h-3.36v-24.45h2.16l.48,3.36h.24s1.92-3.83,5.99-3.83h2.64c4.31,0,5.51,3.36,5.51,3.36h.24s1.2-3.36,5.27-3.36h4.31c4.31,0,7.19,2.88,7.19,6.71v18.21h-3.36v-18.21c0-2.16-1.68-3.83-3.83-3.83h-4.31c-2.16,0-3.83,1.68-3.83,3.83v18.21h-3.36v-18.21c0-2.16-1.68-3.83-3.83-3.83h-2.64c-3.59,0-5.51,4.31-5.51,4.31h0Zm37.15-6.47v-1.44c0-4.55,3.36-7.91,8.39-7.91h13.18v2.16l-.96,.96h-12.22c-2.64,0-4.79,2.16-4.79,4.79v1.44c0,2.64,1.44,4.03,3.83,4.55l8.87,1.92c3.36,.72,5.99,3.36,5.99,7.67v2.16c0,4.55-3.36,7.91-8.39,7.91h-14.38v-3.12h14.38c2.64,0,4.79-2.16,4.79-4.79v-2.16c0-2.64-1.44-4.03-3.83-4.55l-8.87-1.92c-3.36-.72-5.99-3.36-5.99-7.67Zm25.4,2.64v-2.88h3.83l1.44-7.19h1.92v7.19h6.95v2.88h-6.95v14.86c0,2.16,1.68,3.83,3.83,3.83h4.55v2.88h-4.55c-4.31,0-7.19-2.88-7.19-6.71v-14.86h-3.83Zm38.59,21.57h-2.16l-.48-3.36h-.24s-1.92,3.83-5.99,3.83h-3.83c-4.55,0-7.19-2.88-7.19-6.71v-1.44c0-3.83,2.88-6.71,7.19-6.71h9.35v-3.36c0-2.16-1.68-3.83-3.83-3.83h-10.55v-2.88h10.55c4.31,0,7.19,2.88,7.19,6.71v17.73h0Zm-12.7-2.4h3.83c3.59,0,5.51-4.31,5.51-4.31v-4.79h-9.35c-2.16,0-3.83,1.68-3.83,3.83v1.44c0,2.16,1.68,3.83,3.83,3.83h0Zm38.83-20.61l-8.63,23.01c-2.16,5.75-4.55,8.15-8.87,8.15h-1.2v-2.88h1.2c2.4,0,4.07-1.68,5.27-5.27l-9.11-23.01v-1.44h3.36l7.43,20.61h.24l6.95-20.61h3.36v1.44Z"/>
  </g>
  <g id="SvgjsG1009">
    <path class="cls-2" d="M11.36,115.14h1.74l-2.61,6.51h-1.6l-2.61-6.51h1.73l1.67,4.69,1.66-4.69Zm12.85,5.19h-2.39l-.47,1.32h-1.73l2.61-6.51h1.6l2.61,6.51h-1.74l-.47-1.32Zm-1.87-1.48h1.35l-.67-1.89-.68,1.89Zm16.56,.98v1.64c-.66,.18-1.32,.26-2,.26-2,0-3.34-1.37-3.34-3.32s1.39-3.32,3.33-3.32c.67,0,1.37,.05,2.01,.26v1.64c-.52-.26-1.34-.35-1.92-.35-1.3,0-1.83,.53-1.83,1.77,0,1.31,.63,1.79,1.84,1.79,.54,0,1.43-.09,1.9-.35Zm11.95,.5h-2.39l-.47,1.32h-1.73l2.61-6.51h1.6l2.61,6.51h-1.74l-.47-1.32Zm-1.87-1.48h1.35l-.67-1.89-.68,1.89Zm10.6-3.71h5.43v1.48h-1.92v5.03h-1.6v-5.03h-1.92v-1.48Zm13.21,0h1.6v6.51h-1.6v-6.51Zm12.92,5.09c1.16,0,1.76-.74,1.76-1.83,0-1.15-.64-1.83-1.76-1.83s-1.76,.74-1.76,1.83,.65,1.83,1.76,1.83Zm0,1.48c-2,0-3.35-1.36-3.35-3.31s1.42-3.31,3.35-3.31,3.35,1.35,3.35,3.31-1.4,3.31-3.35,3.31Zm15.49-6.56h1.6v6.51h-1.6l-2.55-3.81v3.81h-1.6v-6.51h1.6l2.55,3.81v-3.81Zm23.09,0h1.6v6.51h-1.6v-2.51h-2.34v2.51h-1.6v-6.51h1.6v2.52h2.34v-2.52Zm12.93,5.09c1.16,0,1.76-.74,1.76-1.83,0-1.15-.64-1.83-1.76-1.83s-1.76,.74-1.76,1.83,.65,1.83,1.76,1.83Zm0,1.48c-2,0-3.35-1.36-3.35-3.31s1.42-3.31,3.35-3.31,3.35,1.35,3.35,3.31-1.4,3.31-3.35,3.31Zm12.93-3.64v3.59h-1.6v-6.51h1.6l2.03,3.6,2.03-3.6h1.6v6.51h-1.6v-3.59l-1.23,2.12h-1.6l-1.23-2.12Zm13.88-2.93h4.84v1.48h-3.25v1.04h2.61v1.48h-2.61v1.03h3.25v1.48h-4.84v-6.51Zm12.42,6.35v-1.5c.13,.03,.29,.06,.47,.09,.18,.03,.37,.05,.57,.06s.4,.02,.62,.03,.41,.02,.6,.02c.5,0,.85-.03,1.06-.09,.2-.05,.31-.15,.31-.3,0-.13-.1-.22-.19-.3-.35-.23-.77-.33-1.18-.43-1.17-.23-2.24-.7-2.24-2.04,0-1.59,1.5-1.96,2.79-1.96,.71,0,1.44,.07,2.13,.24v1.5c-.11-.03-.24-.05-.41-.09-.18-.02-.36-.04-.56-.06-.41-.04-.81-.06-1.22-.06-.23,0-.72,0-.95,.09-.15,.05-.24,.12-.24,.29,0,.09,.02,.16,.06,.22,.04,.07,.12,.13,.21,.18,.29,.16,.66,.26,.98,.33,.27,.06,.53,.14,.81,.21,.94,.26,1.55,.78,1.55,1.78,0,1.65-1.64,2-2.96,2-.72,0-1.48-.05-2.19-.22Z"/>
  </g>
</svg>